<mxfile host="Electron" agent="Mozilla/5.0 (Windows NT 10.0; Win64; x64) AppleWebKit/537.36 (KHTML, like Gecko) draw.io/26.0.9 Chrome/128.0.6613.186 Electron/32.2.5 Safari/537.36" version="26.0.9">
  <diagram name="Страница — 1" id="een0wJdZj83AlDuxaY3A">
    <mxGraphModel dx="1366" dy="796" grid="1" gridSize="10" guides="1" tooltips="1" connect="1" arrows="1" fold="1" page="1" pageScale="1" pageWidth="827" pageHeight="1169" math="0" shadow="0">
      <root>
        <mxCell id="0" />
        <mxCell id="1" parent="0" />
        <mxCell id="NQojH1lwc0ZNS_FP-cvM-1" value="" style="edgeStyle=orthogonalEdgeStyle;rounded=0;orthogonalLoop=1;jettySize=auto;html=1;" parent="1" source="NQojH1lwc0ZNS_FP-cvM-2" edge="1">
          <mxGeometry relative="1" as="geometry">
            <mxPoint x="240" y="120" as="targetPoint" />
          </mxGeometry>
        </mxCell>
        <mxCell id="NQojH1lwc0ZNS_FP-cvM-2" value="Начало" style="ellipse;whiteSpace=wrap;html=1;" parent="1" vertex="1">
          <mxGeometry x="180" y="50" width="120" height="40" as="geometry" />
        </mxCell>
        <mxCell id="NQojH1lwc0ZNS_FP-cvM-3" value="" style="edgeStyle=orthogonalEdgeStyle;rounded=0;orthogonalLoop=1;jettySize=auto;html=1;" parent="1" source="NQojH1lwc0ZNS_FP-cvM-4" edge="1">
          <mxGeometry relative="1" as="geometry">
            <mxPoint x="240" y="170" as="targetPoint" />
          </mxGeometry>
        </mxCell>
        <mxCell id="NQojH1lwc0ZNS_FP-cvM-4" value="int main()" style="shape=process;whiteSpace=wrap;html=1;backgroundOutline=1;" parent="1" vertex="1">
          <mxGeometry x="180" y="120" width="120" height="30" as="geometry" />
        </mxCell>
        <mxCell id="NQojH1lwc0ZNS_FP-cvM-7" value="setlocale(LC_ALL, &quot;Russian&quot;);" style="rounded=0;whiteSpace=wrap;html=1;" parent="1" vertex="1">
          <mxGeometry x="180" y="170" width="120" height="30" as="geometry" />
        </mxCell>
        <mxCell id="NQojH1lwc0ZNS_FP-cvM-8" value="" style="edgeStyle=orthogonalEdgeStyle;rounded=0;orthogonalLoop=1;jettySize=auto;html=1;" parent="1" edge="1">
          <mxGeometry relative="1" as="geometry">
            <mxPoint x="240" y="200" as="sourcePoint" />
            <mxPoint x="240" y="220" as="targetPoint" />
          </mxGeometry>
        </mxCell>
        <mxCell id="NQojH1lwc0ZNS_FP-cvM-9" value="&lt;div&gt;#include &amp;lt;iostream&amp;gt;&lt;/div&gt;&lt;div&gt;using namespace std;&lt;/div&gt;&lt;div&gt;&lt;div&gt;int arr[] = { 6,3,7,1,2,5};&lt;/div&gt;&lt;div&gt;int n = sizeof(arr) / sizeof(arr[0]);&lt;/div&gt;&lt;/div&gt;" style="strokeWidth=2;html=1;shape=mxgraph.flowchart.annotation_2;align=left;labelPosition=right;pointerEvents=1;" parent="1" vertex="1">
          <mxGeometry x="320" y="50" width="50" height="100" as="geometry" />
        </mxCell>
        <mxCell id="NQojH1lwc0ZNS_FP-cvM-10" value="" style="endArrow=none;dashed=1;html=1;rounded=0;entryX=-0.04;entryY=0.503;entryDx=0;entryDy=0;entryPerimeter=0;" parent="1" target="NQojH1lwc0ZNS_FP-cvM-9" edge="1">
          <mxGeometry width="50" height="50" relative="1" as="geometry">
            <mxPoint x="240" y="100" as="sourcePoint" />
            <mxPoint x="310" y="100" as="targetPoint" />
          </mxGeometry>
        </mxCell>
        <mxCell id="NQojH1lwc0ZNS_FP-cvM-11" value="cout &amp;lt;&amp;lt; &quot;Исходный массив: &quot;;" style="shape=parallelogram;perimeter=parallelogramPerimeter;whiteSpace=wrap;html=1;fixedSize=1;" parent="1" vertex="1">
          <mxGeometry x="140" y="220" width="210" height="30" as="geometry" />
        </mxCell>
        <mxCell id="NQojH1lwc0ZNS_FP-cvM-13" value="" style="edgeStyle=orthogonalEdgeStyle;rounded=0;orthogonalLoop=1;jettySize=auto;html=1;" parent="1" edge="1">
          <mxGeometry relative="1" as="geometry">
            <mxPoint x="240" y="270" as="targetPoint" />
            <mxPoint x="240" y="250" as="sourcePoint" />
          </mxGeometry>
        </mxCell>
        <mxCell id="NQojH1lwc0ZNS_FP-cvM-14" value="print(arr, n, &quot;&quot;);" style="rounded=0;whiteSpace=wrap;html=1;" parent="1" vertex="1">
          <mxGeometry x="180" y="270" width="120" height="30" as="geometry" />
        </mxCell>
        <mxCell id="NQojH1lwc0ZNS_FP-cvM-15" value="" style="edgeStyle=orthogonalEdgeStyle;rounded=0;orthogonalLoop=1;jettySize=auto;html=1;" parent="1" edge="1">
          <mxGeometry relative="1" as="geometry">
            <mxPoint x="240" y="320" as="targetPoint" />
            <mxPoint x="240" y="300" as="sourcePoint" />
          </mxGeometry>
        </mxCell>
        <mxCell id="NQojH1lwc0ZNS_FP-cvM-16" value="quickSort(arr, 0, n - 1, n);" style="rounded=0;whiteSpace=wrap;html=1;" parent="1" vertex="1">
          <mxGeometry x="170" y="320" width="140" height="30" as="geometry" />
        </mxCell>
        <mxCell id="NQojH1lwc0ZNS_FP-cvM-17" value="" style="edgeStyle=orthogonalEdgeStyle;rounded=0;orthogonalLoop=1;jettySize=auto;html=1;" parent="1" edge="1">
          <mxGeometry relative="1" as="geometry">
            <mxPoint x="240" y="350" as="sourcePoint" />
            <mxPoint x="240" y="370" as="targetPoint" />
          </mxGeometry>
        </mxCell>
        <mxCell id="NQojH1lwc0ZNS_FP-cvM-18" value="cout &amp;lt;&amp;lt; &quot;Исходный массив: &quot;;" style="shape=parallelogram;perimeter=parallelogramPerimeter;whiteSpace=wrap;html=1;fixedSize=1;" parent="1" vertex="1">
          <mxGeometry x="140" y="370" width="210" height="30" as="geometry" />
        </mxCell>
        <mxCell id="NQojH1lwc0ZNS_FP-cvM-19" value="" style="edgeStyle=orthogonalEdgeStyle;rounded=0;orthogonalLoop=1;jettySize=auto;html=1;" parent="1" edge="1">
          <mxGeometry relative="1" as="geometry">
            <mxPoint x="240" y="420" as="targetPoint" />
            <mxPoint x="240" y="400" as="sourcePoint" />
          </mxGeometry>
        </mxCell>
        <mxCell id="NQojH1lwc0ZNS_FP-cvM-21" style="edgeStyle=orthogonalEdgeStyle;rounded=0;orthogonalLoop=1;jettySize=auto;html=1;exitX=0.5;exitY=1;exitDx=0;exitDy=0;" parent="1" source="NQojH1lwc0ZNS_FP-cvM-20" edge="1">
          <mxGeometry relative="1" as="geometry">
            <mxPoint x="239.85714285714278" y="470" as="targetPoint" />
          </mxGeometry>
        </mxCell>
        <mxCell id="NQojH1lwc0ZNS_FP-cvM-20" value="print(arr, n, &quot;&quot;);" style="rounded=0;whiteSpace=wrap;html=1;" parent="1" vertex="1">
          <mxGeometry x="180" y="420" width="120" height="30" as="geometry" />
        </mxCell>
        <mxCell id="NQojH1lwc0ZNS_FP-cvM-22" value="return 0;" style="ellipse;whiteSpace=wrap;html=1;" parent="1" vertex="1">
          <mxGeometry x="180" y="470" width="120" height="40" as="geometry" />
        </mxCell>
        <mxCell id="NQojH1lwc0ZNS_FP-cvM-23" value="{" style="text;html=1;align=center;verticalAlign=middle;resizable=0;points=[];autosize=1;strokeColor=none;fillColor=none;" parent="1" vertex="1">
          <mxGeometry x="150" y="140" width="30" height="30" as="geometry" />
        </mxCell>
        <mxCell id="NQojH1lwc0ZNS_FP-cvM-24" value="}" style="text;html=1;align=center;verticalAlign=middle;resizable=0;points=[];autosize=1;strokeColor=none;fillColor=none;" parent="1" vertex="1">
          <mxGeometry x="275" y="498" width="30" height="30" as="geometry" />
        </mxCell>
        <mxCell id="NQojH1lwc0ZNS_FP-cvM-26" style="edgeStyle=orthogonalEdgeStyle;rounded=0;orthogonalLoop=1;jettySize=auto;html=1;exitX=0.5;exitY=1;exitDx=0;exitDy=0;" parent="1" source="NQojH1lwc0ZNS_FP-cvM-25" edge="1">
          <mxGeometry relative="1" as="geometry">
            <mxPoint x="770.3103448275863" y="90" as="targetPoint" />
          </mxGeometry>
        </mxCell>
        <mxCell id="NQojH1lwc0ZNS_FP-cvM-25" value="void print(int arr[], int size, string message)&amp;nbsp;" style="shape=process;whiteSpace=wrap;html=1;backgroundOutline=1;" parent="1" vertex="1">
          <mxGeometry x="630" y="40" width="280" height="30" as="geometry" />
        </mxCell>
        <mxCell id="NQojH1lwc0ZNS_FP-cvM-27" value="cout &amp;lt;&amp;lt; message &amp;lt;&amp;lt; &quot;: &quot;;" style="shape=parallelogram;perimeter=parallelogramPerimeter;whiteSpace=wrap;html=1;fixedSize=1;" parent="1" vertex="1">
          <mxGeometry x="665" y="90" width="210" height="30" as="geometry" />
        </mxCell>
        <mxCell id="NQojH1lwc0ZNS_FP-cvM-28" value="" style="edgeStyle=orthogonalEdgeStyle;rounded=0;orthogonalLoop=1;jettySize=auto;html=1;" parent="1" edge="1">
          <mxGeometry relative="1" as="geometry">
            <mxPoint x="773.9714285714285" y="120" as="sourcePoint" />
            <mxPoint x="773.9714285714285" y="140" as="targetPoint" />
          </mxGeometry>
        </mxCell>
        <mxCell id="NQojH1lwc0ZNS_FP-cvM-29" style="edgeStyle=orthogonalEdgeStyle;rounded=0;orthogonalLoop=1;jettySize=auto;html=1;exitX=1;exitY=0.5;exitDx=0;exitDy=0;" parent="1" source="NQojH1lwc0ZNS_FP-cvM-30" edge="1">
          <mxGeometry relative="1" as="geometry">
            <mxPoint x="1024" y="200" as="targetPoint" />
          </mxGeometry>
        </mxCell>
        <mxCell id="NQojH1lwc0ZNS_FP-cvM-30" value="" style="verticalLabelPosition=bottom;verticalAlign=top;html=1;shape=hexagon;perimeter=hexagonPerimeter2;arcSize=6;size=0.11951219512195121;" parent="1" vertex="1">
          <mxGeometry x="669.4714285714285" y="140" width="205" height="50" as="geometry" />
        </mxCell>
        <mxCell id="NQojH1lwc0ZNS_FP-cvM-31" value="" style="edgeStyle=orthogonalEdgeStyle;rounded=0;orthogonalLoop=1;jettySize=auto;html=1;" parent="1" edge="1">
          <mxGeometry relative="1" as="geometry">
            <mxPoint x="773.7314285714285" y="190" as="sourcePoint" />
            <mxPoint x="773.9714285714285" y="210" as="targetPoint" />
          </mxGeometry>
        </mxCell>
        <mxCell id="NQojH1lwc0ZNS_FP-cvM-32" value="&amp;nbsp;for (int i = 0; i &amp;lt; size; i++)&amp;nbsp;" style="text;html=1;align=center;verticalAlign=middle;whiteSpace=wrap;rounded=0;" parent="1" vertex="1">
          <mxGeometry x="713.9714285714285" y="150" width="120" height="30" as="geometry" />
        </mxCell>
        <mxCell id="NQojH1lwc0ZNS_FP-cvM-33" value="" style="edgeStyle=orthogonalEdgeStyle;rounded=0;orthogonalLoop=1;jettySize=auto;html=1;entryX=0;entryY=0.5;entryDx=0;entryDy=0;" parent="1" target="NQojH1lwc0ZNS_FP-cvM-30" edge="1">
          <mxGeometry relative="1" as="geometry">
            <mxPoint x="773.9714285714285" y="240" as="sourcePoint" />
            <mxPoint x="653.9714285714285" y="210" as="targetPoint" />
            <Array as="points">
              <mxPoint x="773.9714285714285" y="290" />
              <mxPoint x="649.9714285714285" y="290" />
              <mxPoint x="649.9714285714285" y="165" />
            </Array>
          </mxGeometry>
        </mxCell>
        <mxCell id="NQojH1lwc0ZNS_FP-cvM-34" value="a[i] = rand() % 25;" style="rounded=0;whiteSpace=wrap;html=1;" parent="1" vertex="1">
          <mxGeometry x="713.9714285714285" y="210" width="120" height="30" as="geometry" />
        </mxCell>
        <mxCell id="NQojH1lwc0ZNS_FP-cvM-35" value="cout &amp;lt;&amp;lt; arr[i] &amp;lt;&amp;lt; &quot; &quot;;" style="shape=parallelogram;perimeter=parallelogramPerimeter;whiteSpace=wrap;html=1;fixedSize=1;" parent="1" vertex="1">
          <mxGeometry x="675" y="210" width="210" height="30" as="geometry" />
        </mxCell>
        <mxCell id="NQojH1lwc0ZNS_FP-cvM-37" style="edgeStyle=orthogonalEdgeStyle;rounded=0;orthogonalLoop=1;jettySize=auto;html=1;exitX=0.5;exitY=1;exitDx=0;exitDy=0;" parent="1" source="NQojH1lwc0ZNS_FP-cvM-36" edge="1">
          <mxGeometry relative="1" as="geometry">
            <mxPoint x="1015.1379310344828" y="249.9999999999999" as="targetPoint" />
          </mxGeometry>
        </mxCell>
        <mxCell id="NQojH1lwc0ZNS_FP-cvM-36" value="cout &amp;lt;&amp;lt; endl;" style="shape=parallelogram;perimeter=parallelogramPerimeter;whiteSpace=wrap;html=1;fixedSize=1;" parent="1" vertex="1">
          <mxGeometry x="910" y="200" width="210" height="30" as="geometry" />
        </mxCell>
        <mxCell id="NQojH1lwc0ZNS_FP-cvM-38" value="return;" style="ellipse;whiteSpace=wrap;html=1;" parent="1" vertex="1">
          <mxGeometry x="955" y="250" width="120" height="40" as="geometry" />
        </mxCell>
        <mxCell id="NQojH1lwc0ZNS_FP-cvM-40" style="edgeStyle=orthogonalEdgeStyle;rounded=0;orthogonalLoop=1;jettySize=auto;html=1;exitX=0.5;exitY=1;exitDx=0;exitDy=0;" parent="1" source="NQojH1lwc0ZNS_FP-cvM-39" edge="1">
          <mxGeometry relative="1" as="geometry">
            <mxPoint x="529.8571428571429" y="890" as="targetPoint" />
          </mxGeometry>
        </mxCell>
        <mxCell id="NQojH1lwc0ZNS_FP-cvM-39" value="int partition(int arr[], int low, int high)" style="shape=process;whiteSpace=wrap;html=1;backgroundOutline=1;" parent="1" vertex="1">
          <mxGeometry x="390" y="840" width="280" height="30" as="geometry" />
        </mxCell>
        <mxCell id="NQojH1lwc0ZNS_FP-cvM-41" value="int pivot = arr[(low + high) / 2];" style="rounded=0;whiteSpace=wrap;html=1;" parent="1" vertex="1">
          <mxGeometry x="460" y="890" width="140" height="30" as="geometry" />
        </mxCell>
        <mxCell id="NQojH1lwc0ZNS_FP-cvM-42" style="edgeStyle=orthogonalEdgeStyle;rounded=0;orthogonalLoop=1;jettySize=auto;html=1;exitX=0.5;exitY=1;exitDx=0;exitDy=0;" parent="1" edge="1">
          <mxGeometry relative="1" as="geometry">
            <mxPoint x="529.8571428571429" y="940" as="targetPoint" />
            <mxPoint x="530" y="920" as="sourcePoint" />
          </mxGeometry>
        </mxCell>
        <mxCell id="NQojH1lwc0ZNS_FP-cvM-43" value="int left = low - 1;" style="rounded=0;whiteSpace=wrap;html=1;" parent="1" vertex="1">
          <mxGeometry x="460" y="940" width="140" height="30" as="geometry" />
        </mxCell>
        <mxCell id="NQojH1lwc0ZNS_FP-cvM-44" style="edgeStyle=orthogonalEdgeStyle;rounded=0;orthogonalLoop=1;jettySize=auto;html=1;exitX=0.5;exitY=1;exitDx=0;exitDy=0;" parent="1" edge="1">
          <mxGeometry relative="1" as="geometry">
            <mxPoint x="529.8571428571429" y="990" as="targetPoint" />
            <mxPoint x="530" y="970" as="sourcePoint" />
          </mxGeometry>
        </mxCell>
        <mxCell id="NQojH1lwc0ZNS_FP-cvM-45" value="int right = high + 1;" style="rounded=0;whiteSpace=wrap;html=1;" parent="1" vertex="1">
          <mxGeometry x="460" y="990" width="140" height="30" as="geometry" />
        </mxCell>
        <mxCell id="NQojH1lwc0ZNS_FP-cvM-46" style="edgeStyle=orthogonalEdgeStyle;rounded=0;orthogonalLoop=1;jettySize=auto;html=1;exitX=0.5;exitY=1;exitDx=0;exitDy=0;" parent="1" edge="1">
          <mxGeometry relative="1" as="geometry">
            <mxPoint x="529.8571428571429" y="1040" as="targetPoint" />
            <mxPoint x="530" y="1020" as="sourcePoint" />
          </mxGeometry>
        </mxCell>
        <mxCell id="NQojH1lwc0ZNS_FP-cvM-49" style="edgeStyle=orthogonalEdgeStyle;rounded=0;orthogonalLoop=1;jettySize=auto;html=1;exitX=0.5;exitY=1;exitDx=0;exitDy=0;" parent="1" source="NQojH1lwc0ZNS_FP-cvM-48" edge="1">
          <mxGeometry relative="1" as="geometry">
            <mxPoint x="529.8571428571429" y="1140" as="targetPoint" />
          </mxGeometry>
        </mxCell>
        <mxCell id="NQojH1lwc0ZNS_FP-cvM-85" style="edgeStyle=orthogonalEdgeStyle;rounded=0;orthogonalLoop=1;jettySize=auto;html=1;exitX=1;exitY=0.5;exitDx=0;exitDy=0;" parent="1" source="NQojH1lwc0ZNS_FP-cvM-48" edge="1">
          <mxGeometry relative="1" as="geometry">
            <mxPoint x="820" y="1130" as="targetPoint" />
          </mxGeometry>
        </mxCell>
        <mxCell id="NQojH1lwc0ZNS_FP-cvM-48" value="while (left &amp;lt; right)" style="rhombus;whiteSpace=wrap;html=1;" parent="1" vertex="1">
          <mxGeometry x="465" y="1040" width="130" height="80" as="geometry" />
        </mxCell>
        <mxCell id="NQojH1lwc0ZNS_FP-cvM-51" style="edgeStyle=orthogonalEdgeStyle;rounded=0;orthogonalLoop=1;jettySize=auto;html=1;exitX=0.5;exitY=1;exitDx=0;exitDy=0;" parent="1" source="NQojH1lwc0ZNS_FP-cvM-50" edge="1">
          <mxGeometry relative="1" as="geometry">
            <mxPoint x="529.8571428571429" y="1190" as="targetPoint" />
          </mxGeometry>
        </mxCell>
        <mxCell id="NQojH1lwc0ZNS_FP-cvM-50" value="do" style="rounded=0;whiteSpace=wrap;html=1;" parent="1" vertex="1">
          <mxGeometry x="460" y="1140" width="140" height="30" as="geometry" />
        </mxCell>
        <mxCell id="NQojH1lwc0ZNS_FP-cvM-53" style="edgeStyle=orthogonalEdgeStyle;rounded=0;orthogonalLoop=1;jettySize=auto;html=1;exitX=0.5;exitY=1;exitDx=0;exitDy=0;" parent="1" source="NQojH1lwc0ZNS_FP-cvM-52" edge="1">
          <mxGeometry relative="1" as="geometry">
            <mxPoint x="529.8571428571429" y="1240" as="targetPoint" />
          </mxGeometry>
        </mxCell>
        <mxCell id="NQojH1lwc0ZNS_FP-cvM-52" value="left++;" style="rounded=0;whiteSpace=wrap;html=1;" parent="1" vertex="1">
          <mxGeometry x="460" y="1190" width="140" height="30" as="geometry" />
        </mxCell>
        <mxCell id="NQojH1lwc0ZNS_FP-cvM-55" style="edgeStyle=orthogonalEdgeStyle;rounded=0;orthogonalLoop=1;jettySize=auto;html=1;exitX=0.5;exitY=1;exitDx=0;exitDy=0;entryX=0;entryY=0.5;entryDx=0;entryDy=0;" parent="1" source="NQojH1lwc0ZNS_FP-cvM-54" target="NQojH1lwc0ZNS_FP-cvM-50" edge="1">
          <mxGeometry relative="1" as="geometry" />
        </mxCell>
        <mxCell id="NQojH1lwc0ZNS_FP-cvM-56" style="edgeStyle=orthogonalEdgeStyle;rounded=0;orthogonalLoop=1;jettySize=auto;html=1;exitX=1;exitY=0.5;exitDx=0;exitDy=0;" parent="1" source="NQojH1lwc0ZNS_FP-cvM-54" edge="1">
          <mxGeometry relative="1" as="geometry">
            <mxPoint x="759.9999999999998" y="1330" as="targetPoint" />
          </mxGeometry>
        </mxCell>
        <mxCell id="NQojH1lwc0ZNS_FP-cvM-54" value="while (arr[left] &amp;lt; pivot);" style="rhombus;whiteSpace=wrap;html=1;" parent="1" vertex="1">
          <mxGeometry x="465" y="1240" width="130" height="80" as="geometry" />
        </mxCell>
        <mxCell id="NQojH1lwc0ZNS_FP-cvM-57" style="edgeStyle=orthogonalEdgeStyle;rounded=0;orthogonalLoop=1;jettySize=auto;html=1;exitX=0.5;exitY=1;exitDx=0;exitDy=0;" parent="1" edge="1">
          <mxGeometry relative="1" as="geometry">
            <mxPoint x="759.8871428571429" y="1330" as="targetPoint" />
            <mxPoint x="760.03" y="1310" as="sourcePoint" />
          </mxGeometry>
        </mxCell>
        <mxCell id="NQojH1lwc0ZNS_FP-cvM-58" style="edgeStyle=orthogonalEdgeStyle;rounded=0;orthogonalLoop=1;jettySize=auto;html=1;exitX=0.5;exitY=1;exitDx=0;exitDy=0;" parent="1" source="NQojH1lwc0ZNS_FP-cvM-59" edge="1">
          <mxGeometry relative="1" as="geometry">
            <mxPoint x="759.8871428571429" y="1380" as="targetPoint" />
          </mxGeometry>
        </mxCell>
        <mxCell id="NQojH1lwc0ZNS_FP-cvM-59" value="do" style="rounded=0;whiteSpace=wrap;html=1;" parent="1" vertex="1">
          <mxGeometry x="690.03" y="1330" width="140" height="30" as="geometry" />
        </mxCell>
        <mxCell id="NQojH1lwc0ZNS_FP-cvM-60" style="edgeStyle=orthogonalEdgeStyle;rounded=0;orthogonalLoop=1;jettySize=auto;html=1;exitX=0.5;exitY=1;exitDx=0;exitDy=0;" parent="1" source="NQojH1lwc0ZNS_FP-cvM-61" edge="1">
          <mxGeometry relative="1" as="geometry">
            <mxPoint x="759.8871428571429" y="1430" as="targetPoint" />
          </mxGeometry>
        </mxCell>
        <mxCell id="NQojH1lwc0ZNS_FP-cvM-61" value="right--;" style="rounded=0;whiteSpace=wrap;html=1;" parent="1" vertex="1">
          <mxGeometry x="690.03" y="1380" width="140" height="30" as="geometry" />
        </mxCell>
        <mxCell id="NQojH1lwc0ZNS_FP-cvM-62" style="edgeStyle=orthogonalEdgeStyle;rounded=0;orthogonalLoop=1;jettySize=auto;html=1;exitX=0.5;exitY=1;exitDx=0;exitDy=0;entryX=0;entryY=0.5;entryDx=0;entryDy=0;" parent="1" source="NQojH1lwc0ZNS_FP-cvM-64" target="NQojH1lwc0ZNS_FP-cvM-59" edge="1">
          <mxGeometry relative="1" as="geometry" />
        </mxCell>
        <mxCell id="NQojH1lwc0ZNS_FP-cvM-63" style="edgeStyle=orthogonalEdgeStyle;rounded=0;orthogonalLoop=1;jettySize=auto;html=1;exitX=1;exitY=0.5;exitDx=0;exitDy=0;" parent="1" source="NQojH1lwc0ZNS_FP-cvM-64" edge="1">
          <mxGeometry relative="1" as="geometry">
            <mxPoint x="990.0299999999997" y="1520" as="targetPoint" />
          </mxGeometry>
        </mxCell>
        <mxCell id="NQojH1lwc0ZNS_FP-cvM-64" value="while (arr[right] &amp;gt; pivot);" style="rhombus;whiteSpace=wrap;html=1;" parent="1" vertex="1">
          <mxGeometry x="695.03" y="1430" width="130" height="80" as="geometry" />
        </mxCell>
        <mxCell id="NQojH1lwc0ZNS_FP-cvM-67" style="edgeStyle=orthogonalEdgeStyle;rounded=0;orthogonalLoop=1;jettySize=auto;html=1;exitX=0;exitY=0.5;exitDx=0;exitDy=0;" parent="1" source="NQojH1lwc0ZNS_FP-cvM-69" edge="1">
          <mxGeometry relative="1" as="geometry">
            <mxPoint x="850" y="1609" as="targetPoint" />
          </mxGeometry>
        </mxCell>
        <mxCell id="NQojH1lwc0ZNS_FP-cvM-68" style="edgeStyle=orthogonalEdgeStyle;rounded=0;orthogonalLoop=1;jettySize=auto;html=1;exitX=1;exitY=0.5;exitDx=0;exitDy=0;" parent="1" source="NQojH1lwc0ZNS_FP-cvM-69" edge="1">
          <mxGeometry relative="1" as="geometry">
            <mxPoint x="1000" y="1770" as="targetPoint" />
            <Array as="points">
              <mxPoint x="1110" y="1559" />
              <mxPoint x="1110" y="1770" />
            </Array>
          </mxGeometry>
        </mxCell>
        <mxCell id="NQojH1lwc0ZNS_FP-cvM-69" value="if (left &amp;lt; right)&amp;nbsp;" style="rhombus;whiteSpace=wrap;html=1;" parent="1" vertex="1">
          <mxGeometry x="930" y="1519" width="130" height="80" as="geometry" />
        </mxCell>
        <mxCell id="NQojH1lwc0ZNS_FP-cvM-74" style="edgeStyle=orthogonalEdgeStyle;rounded=0;orthogonalLoop=1;jettySize=auto;html=1;" parent="1" source="NQojH1lwc0ZNS_FP-cvM-71" edge="1">
          <mxGeometry relative="1" as="geometry">
            <mxPoint x="850" y="1660.0000000000002" as="targetPoint" />
          </mxGeometry>
        </mxCell>
        <mxCell id="NQojH1lwc0ZNS_FP-cvM-71" value="int temp = arr[left];" style="rounded=0;whiteSpace=wrap;html=1;" parent="1" vertex="1">
          <mxGeometry x="790" y="1610" width="120" height="30" as="geometry" />
        </mxCell>
        <mxCell id="NQojH1lwc0ZNS_FP-cvM-75" style="edgeStyle=orthogonalEdgeStyle;rounded=0;orthogonalLoop=1;jettySize=auto;html=1;" parent="1" source="NQojH1lwc0ZNS_FP-cvM-76" edge="1">
          <mxGeometry relative="1" as="geometry">
            <mxPoint x="850" y="1710.0000000000002" as="targetPoint" />
          </mxGeometry>
        </mxCell>
        <mxCell id="NQojH1lwc0ZNS_FP-cvM-76" value="arr[left] = arr[right];" style="rounded=0;whiteSpace=wrap;html=1;" parent="1" vertex="1">
          <mxGeometry x="790" y="1659" width="120" height="30" as="geometry" />
        </mxCell>
        <mxCell id="NQojH1lwc0ZNS_FP-cvM-77" style="edgeStyle=orthogonalEdgeStyle;rounded=0;orthogonalLoop=1;jettySize=auto;html=1;" parent="1" source="NQojH1lwc0ZNS_FP-cvM-78" edge="1">
          <mxGeometry relative="1" as="geometry">
            <mxPoint x="1000" y="1770" as="targetPoint" />
            <Array as="points">
              <mxPoint x="850" y="1770" />
            </Array>
          </mxGeometry>
        </mxCell>
        <mxCell id="NQojH1lwc0ZNS_FP-cvM-78" value="arr[right] = temp;" style="rounded=0;whiteSpace=wrap;html=1;" parent="1" vertex="1">
          <mxGeometry x="790" y="1710" width="120" height="30" as="geometry" />
        </mxCell>
        <mxCell id="NQojH1lwc0ZNS_FP-cvM-81" value="1" style="text;html=1;align=center;verticalAlign=middle;resizable=0;points=[];autosize=1;strokeColor=none;fillColor=none;" parent="1" vertex="1">
          <mxGeometry x="875" y="1518" width="30" height="30" as="geometry" />
        </mxCell>
        <mxCell id="NQojH1lwc0ZNS_FP-cvM-82" value="0" style="text;html=1;align=center;verticalAlign=middle;resizable=0;points=[];autosize=1;strokeColor=none;fillColor=none;" parent="1" vertex="1">
          <mxGeometry x="1065" y="1518" width="30" height="30" as="geometry" />
        </mxCell>
        <mxCell id="NQojH1lwc0ZNS_FP-cvM-83" value="" style="endArrow=classic;html=1;rounded=0;entryX=0;entryY=0.5;entryDx=0;entryDy=0;" parent="1" target="NQojH1lwc0ZNS_FP-cvM-48" edge="1">
          <mxGeometry width="50" height="50" relative="1" as="geometry">
            <mxPoint x="1000" y="1770" as="sourcePoint" />
            <mxPoint x="1000" y="1800" as="targetPoint" />
            <Array as="points">
              <mxPoint x="1000" y="1820" />
              <mxPoint x="400" y="1820" />
              <mxPoint x="400" y="1080" />
            </Array>
          </mxGeometry>
        </mxCell>
        <mxCell id="NQojH1lwc0ZNS_FP-cvM-84" value="return right;" style="ellipse;whiteSpace=wrap;html=1;" parent="1" vertex="1">
          <mxGeometry x="770" y="1130" width="120" height="50" as="geometry" />
        </mxCell>
        <mxCell id="NQojH1lwc0ZNS_FP-cvM-86" value="{" style="text;html=1;align=center;verticalAlign=middle;resizable=0;points=[];autosize=1;strokeColor=none;fillColor=none;" parent="1" vertex="1">
          <mxGeometry x="425" y="868" width="30" height="30" as="geometry" />
        </mxCell>
        <mxCell id="NQojH1lwc0ZNS_FP-cvM-87" value="}" style="text;html=1;align=center;verticalAlign=middle;resizable=0;points=[];autosize=1;strokeColor=none;fillColor=none;" parent="1" vertex="1">
          <mxGeometry x="865" y="1178" width="30" height="30" as="geometry" />
        </mxCell>
        <mxCell id="NQojH1lwc0ZNS_FP-cvM-88" value="{" style="text;html=1;align=center;verticalAlign=middle;resizable=0;points=[];autosize=1;strokeColor=none;fillColor=none;" parent="1" vertex="1">
          <mxGeometry x="435" y="1160" width="30" height="30" as="geometry" />
        </mxCell>
        <mxCell id="NQojH1lwc0ZNS_FP-cvM-89" value="}" style="text;html=1;align=center;verticalAlign=middle;resizable=0;points=[];autosize=1;strokeColor=none;fillColor=none;" parent="1" vertex="1">
          <mxGeometry x="475" y="1228" width="30" height="30" as="geometry" />
        </mxCell>
        <mxCell id="NQojH1lwc0ZNS_FP-cvM-90" value="{" style="text;html=1;align=center;verticalAlign=middle;resizable=0;points=[];autosize=1;strokeColor=none;fillColor=none;" parent="1" vertex="1">
          <mxGeometry x="665" y="1348" width="30" height="30" as="geometry" />
        </mxCell>
        <mxCell id="NQojH1lwc0ZNS_FP-cvM-91" value="}" style="text;html=1;align=center;verticalAlign=middle;resizable=0;points=[];autosize=1;strokeColor=none;fillColor=none;" parent="1" vertex="1">
          <mxGeometry x="695" y="1418" width="30" height="30" as="geometry" />
        </mxCell>
        <mxCell id="NQojH1lwc0ZNS_FP-cvM-92" value="{" style="text;html=1;align=center;verticalAlign=middle;resizable=0;points=[];autosize=1;strokeColor=none;fillColor=none;" parent="1" vertex="1">
          <mxGeometry x="805" y="1558" width="30" height="30" as="geometry" />
        </mxCell>
        <mxCell id="NQojH1lwc0ZNS_FP-cvM-93" value="}" style="text;html=1;align=center;verticalAlign=middle;resizable=0;points=[];autosize=1;strokeColor=none;fillColor=none;" parent="1" vertex="1">
          <mxGeometry x="795" y="1748" width="30" height="30" as="geometry" />
        </mxCell>
        <mxCell id="NQojH1lwc0ZNS_FP-cvM-94" value="{" style="text;html=1;align=center;verticalAlign=middle;resizable=0;points=[];autosize=1;strokeColor=none;fillColor=none;" parent="1" vertex="1">
          <mxGeometry x="445" y="1088" width="30" height="30" as="geometry" />
        </mxCell>
        <mxCell id="NQojH1lwc0ZNS_FP-cvM-95" value="}" style="text;html=1;align=center;verticalAlign=middle;resizable=0;points=[];autosize=1;strokeColor=none;fillColor=none;" parent="1" vertex="1">
          <mxGeometry x="1015" y="1778" width="30" height="30" as="geometry" />
        </mxCell>
        <mxCell id="NQojH1lwc0ZNS_FP-cvM-96" value="void quickSort(int arr[], int low, int high, int size)" style="shape=process;whiteSpace=wrap;html=1;backgroundOutline=1;" parent="1" vertex="1">
          <mxGeometry x="1450" y="55" width="350" height="30" as="geometry" />
        </mxCell>
        <mxCell id="NQojH1lwc0ZNS_FP-cvM-97" value="" style="edgeStyle=orthogonalEdgeStyle;rounded=0;orthogonalLoop=1;jettySize=auto;html=1;" parent="1" edge="1">
          <mxGeometry relative="1" as="geometry">
            <mxPoint x="1623.702857142857" y="85.00000000000011" as="sourcePoint" />
            <mxPoint x="1623.942857142857" y="105.00000000000011" as="targetPoint" />
          </mxGeometry>
        </mxCell>
        <mxCell id="NQojH1lwc0ZNS_FP-cvM-98" value="" style="edgeStyle=orthogonalEdgeStyle;rounded=0;orthogonalLoop=1;jettySize=auto;html=1;" parent="1" edge="1">
          <mxGeometry relative="1" as="geometry">
            <mxPoint x="1623.942857142857" y="85.00000000000011" as="sourcePoint" />
            <mxPoint x="1623.942857142857" y="105.00000000000011" as="targetPoint" />
          </mxGeometry>
        </mxCell>
        <mxCell id="NQojH1lwc0ZNS_FP-cvM-99" style="edgeStyle=orthogonalEdgeStyle;rounded=0;orthogonalLoop=1;jettySize=auto;html=1;exitX=0;exitY=0.5;exitDx=0;exitDy=0;" parent="1" source="NQojH1lwc0ZNS_FP-cvM-101" edge="1">
          <mxGeometry relative="1" as="geometry">
            <mxPoint x="1480" y="195.0000000000001" as="targetPoint" />
          </mxGeometry>
        </mxCell>
        <mxCell id="NQojH1lwc0ZNS_FP-cvM-143" style="edgeStyle=orthogonalEdgeStyle;rounded=0;orthogonalLoop=1;jettySize=auto;html=1;exitX=1;exitY=0.5;exitDx=0;exitDy=0;" parent="1" source="NQojH1lwc0ZNS_FP-cvM-101" edge="1">
          <mxGeometry relative="1" as="geometry">
            <mxPoint x="1650" y="720" as="targetPoint" />
            <Array as="points">
              <mxPoint x="1760" y="145" />
              <mxPoint x="1760" y="720" />
            </Array>
          </mxGeometry>
        </mxCell>
        <mxCell id="NQojH1lwc0ZNS_FP-cvM-101" value="if (low &amp;lt; high)&amp;nbsp;" style="rhombus;whiteSpace=wrap;html=1;" parent="1" vertex="1">
          <mxGeometry x="1560" y="105.00000000000011" width="130" height="80" as="geometry" />
        </mxCell>
        <mxCell id="NQojH1lwc0ZNS_FP-cvM-108" style="edgeStyle=orthogonalEdgeStyle;rounded=0;orthogonalLoop=1;jettySize=auto;html=1;exitX=0.5;exitY=1;exitDx=0;exitDy=0;" parent="1" source="NQojH1lwc0ZNS_FP-cvM-103" edge="1">
          <mxGeometry relative="1" as="geometry">
            <mxPoint x="1479.8571428571427" y="250" as="targetPoint" />
          </mxGeometry>
        </mxCell>
        <mxCell id="NQojH1lwc0ZNS_FP-cvM-103" value="print(arr, size, &quot;Текущий массив&quot;);" style="rounded=0;whiteSpace=wrap;html=1;" parent="1" vertex="1">
          <mxGeometry x="1420" y="195.0000000000001" width="120" height="30" as="geometry" />
        </mxCell>
        <mxCell id="NQojH1lwc0ZNS_FP-cvM-106" value="1" style="text;html=1;align=center;verticalAlign=middle;resizable=0;points=[];autosize=1;strokeColor=none;fillColor=none;" parent="1" vertex="1">
          <mxGeometry x="1485" y="108" width="30" height="30" as="geometry" />
        </mxCell>
        <mxCell id="NQojH1lwc0ZNS_FP-cvM-107" value="0" style="text;html=1;align=center;verticalAlign=middle;resizable=0;points=[];autosize=1;strokeColor=none;fillColor=none;" parent="1" vertex="1">
          <mxGeometry x="1695" y="108" width="30" height="30" as="geometry" />
        </mxCell>
        <mxCell id="NQojH1lwc0ZNS_FP-cvM-111" value="cout &amp;lt;&amp;lt; &quot;Опорный элемент: &quot;&amp;nbsp;&lt;div&gt;&amp;lt;&amp;lt; arr[(low + high) / 2] &amp;lt;&amp;lt; endl;&lt;/div&gt;" style="shape=parallelogram;perimeter=parallelogramPerimeter;whiteSpace=wrap;html=1;fixedSize=1;" parent="1" vertex="1">
          <mxGeometry x="1350" y="250" width="270" height="30" as="geometry" />
        </mxCell>
        <mxCell id="NQojH1lwc0ZNS_FP-cvM-112" style="edgeStyle=orthogonalEdgeStyle;rounded=0;orthogonalLoop=1;jettySize=auto;html=1;exitX=0.5;exitY=1;exitDx=0;exitDy=0;" parent="1" edge="1">
          <mxGeometry relative="1" as="geometry">
            <mxPoint x="1479.8571428571427" y="305" as="targetPoint" />
            <mxPoint x="1480" y="280" as="sourcePoint" />
          </mxGeometry>
        </mxCell>
        <mxCell id="NQojH1lwc0ZNS_FP-cvM-114" style="edgeStyle=orthogonalEdgeStyle;rounded=0;orthogonalLoop=1;jettySize=auto;html=1;exitX=0.5;exitY=1;exitDx=0;exitDy=0;" parent="1" source="NQojH1lwc0ZNS_FP-cvM-113" edge="1">
          <mxGeometry relative="1" as="geometry">
            <mxPoint x="1485.095238095238" y="350" as="targetPoint" />
          </mxGeometry>
        </mxCell>
        <mxCell id="NQojH1lwc0ZNS_FP-cvM-113" value="cout &amp;lt;&amp;lt; &quot;Диапазон: [&quot; &amp;lt;&amp;lt; low&amp;nbsp;&lt;div&gt;&amp;lt;&amp;lt; &quot;, &quot; &amp;lt;&amp;lt; high &amp;lt;&amp;lt; &quot;]&quot; &amp;lt;&amp;lt; endl;&lt;/div&gt;" style="shape=parallelogram;perimeter=parallelogramPerimeter;whiteSpace=wrap;html=1;fixedSize=1;" parent="1" vertex="1">
          <mxGeometry x="1350" y="305" width="270" height="30" as="geometry" />
        </mxCell>
        <mxCell id="NQojH1lwc0ZNS_FP-cvM-115" value="int pi = partition(arr, low, high);" style="rounded=0;whiteSpace=wrap;html=1;" parent="1" vertex="1">
          <mxGeometry x="1420" y="350.0000000000001" width="120" height="30" as="geometry" />
        </mxCell>
        <mxCell id="NQojH1lwc0ZNS_FP-cvM-127" style="edgeStyle=orthogonalEdgeStyle;rounded=0;orthogonalLoop=1;jettySize=auto;html=1;exitX=0.5;exitY=1;exitDx=0;exitDy=0;" parent="1" edge="1">
          <mxGeometry relative="1" as="geometry">
            <mxPoint x="1479.8571428571427" y="405" as="targetPoint" />
            <mxPoint x="1480" y="380" as="sourcePoint" />
          </mxGeometry>
        </mxCell>
        <mxCell id="NQojH1lwc0ZNS_FP-cvM-128" style="edgeStyle=orthogonalEdgeStyle;rounded=0;orthogonalLoop=1;jettySize=auto;html=1;exitX=0.5;exitY=1;exitDx=0;exitDy=0;" parent="1" source="NQojH1lwc0ZNS_FP-cvM-129" edge="1">
          <mxGeometry relative="1" as="geometry">
            <mxPoint x="1485.095238095238" y="450" as="targetPoint" />
          </mxGeometry>
        </mxCell>
        <mxCell id="NQojH1lwc0ZNS_FP-cvM-129" value="cout &amp;lt;&amp;lt; &quot;После разделения: &quot;;" style="shape=parallelogram;perimeter=parallelogramPerimeter;whiteSpace=wrap;html=1;fixedSize=1;" parent="1" vertex="1">
          <mxGeometry x="1350" y="405" width="270" height="30" as="geometry" />
        </mxCell>
        <mxCell id="NQojH1lwc0ZNS_FP-cvM-130" style="edgeStyle=orthogonalEdgeStyle;rounded=0;orthogonalLoop=1;jettySize=auto;html=1;exitX=0.5;exitY=1;exitDx=0;exitDy=0;" parent="1" edge="1">
          <mxGeometry relative="1" as="geometry">
            <mxPoint x="1485.095238095238" y="450" as="targetPoint" />
            <mxPoint x="1485" y="435" as="sourcePoint" />
          </mxGeometry>
        </mxCell>
        <mxCell id="NQojH1lwc0ZNS_FP-cvM-131" value="&amp;nbsp;print(arr, size, &quot;&quot;);" style="rounded=0;whiteSpace=wrap;html=1;" parent="1" vertex="1">
          <mxGeometry x="1420" y="450.0000000000001" width="120" height="30" as="geometry" />
        </mxCell>
        <mxCell id="NQojH1lwc0ZNS_FP-cvM-132" style="edgeStyle=orthogonalEdgeStyle;rounded=0;orthogonalLoop=1;jettySize=auto;html=1;exitX=0.5;exitY=1;exitDx=0;exitDy=0;" parent="1" edge="1">
          <mxGeometry relative="1" as="geometry">
            <mxPoint x="1479.8571428571427" y="505" as="targetPoint" />
            <mxPoint x="1480" y="480" as="sourcePoint" />
          </mxGeometry>
        </mxCell>
        <mxCell id="NQojH1lwc0ZNS_FP-cvM-133" style="edgeStyle=orthogonalEdgeStyle;rounded=0;orthogonalLoop=1;jettySize=auto;html=1;exitX=0.5;exitY=1;exitDx=0;exitDy=0;" parent="1" source="NQojH1lwc0ZNS_FP-cvM-134" edge="1">
          <mxGeometry relative="1" as="geometry">
            <mxPoint x="1485.095238095238" y="550" as="targetPoint" />
          </mxGeometry>
        </mxCell>
        <mxCell id="NQojH1lwc0ZNS_FP-cvM-134" value="&lt;div&gt;&lt;font style=&quot;font-size: 9px;&quot;&gt;&amp;nbsp;cout &amp;lt;&amp;lt; &quot;----------------------------------------&quot; &amp;lt;&amp;lt; endl;&lt;/font&gt;&lt;/div&gt;&lt;div&gt;&lt;br&gt;&lt;/div&gt;" style="shape=parallelogram;perimeter=parallelogramPerimeter;whiteSpace=wrap;html=1;fixedSize=1;" parent="1" vertex="1">
          <mxGeometry x="1350" y="505" width="270" height="30" as="geometry" />
        </mxCell>
        <mxCell id="NQojH1lwc0ZNS_FP-cvM-135" style="edgeStyle=orthogonalEdgeStyle;rounded=0;orthogonalLoop=1;jettySize=auto;html=1;exitX=0.5;exitY=1;exitDx=0;exitDy=0;" parent="1" edge="1">
          <mxGeometry relative="1" as="geometry">
            <mxPoint x="1485.095238095238" y="550" as="targetPoint" />
            <mxPoint x="1485" y="535" as="sourcePoint" />
          </mxGeometry>
        </mxCell>
        <mxCell id="NQojH1lwc0ZNS_FP-cvM-136" style="edgeStyle=orthogonalEdgeStyle;rounded=0;orthogonalLoop=1;jettySize=auto;html=1;exitX=0.5;exitY=1;exitDx=0;exitDy=0;" parent="1" edge="1">
          <mxGeometry relative="1" as="geometry">
            <mxPoint x="1485.095238095238" y="550" as="targetPoint" />
            <mxPoint x="1485" y="535" as="sourcePoint" />
          </mxGeometry>
        </mxCell>
        <mxCell id="NQojH1lwc0ZNS_FP-cvM-137" style="edgeStyle=orthogonalEdgeStyle;rounded=0;orthogonalLoop=1;jettySize=auto;html=1;exitX=0.5;exitY=1;exitDx=0;exitDy=0;" parent="1" edge="1">
          <mxGeometry relative="1" as="geometry">
            <mxPoint x="1485.095238095238" y="550" as="targetPoint" />
            <mxPoint x="1485" y="535" as="sourcePoint" />
          </mxGeometry>
        </mxCell>
        <mxCell id="NQojH1lwc0ZNS_FP-cvM-138" value="quickSort(arr, low, pi, size);" style="rounded=0;whiteSpace=wrap;html=1;" parent="1" vertex="1">
          <mxGeometry x="1420" y="550.0000000000001" width="120" height="30" as="geometry" />
        </mxCell>
        <mxCell id="NQojH1lwc0ZNS_FP-cvM-139" style="edgeStyle=orthogonalEdgeStyle;rounded=0;orthogonalLoop=1;jettySize=auto;html=1;exitX=0.5;exitY=1;exitDx=0;exitDy=0;entryX=0.5;entryY=0;entryDx=0;entryDy=0;" parent="1" target="NQojH1lwc0ZNS_FP-cvM-140" edge="1">
          <mxGeometry relative="1" as="geometry">
            <mxPoint x="1479.8571428571427" y="605" as="targetPoint" />
            <mxPoint x="1480" y="580" as="sourcePoint" />
          </mxGeometry>
        </mxCell>
        <mxCell id="NQojH1lwc0ZNS_FP-cvM-141" style="edgeStyle=orthogonalEdgeStyle;rounded=0;orthogonalLoop=1;jettySize=auto;html=1;exitX=0.5;exitY=1;exitDx=0;exitDy=0;" parent="1" source="NQojH1lwc0ZNS_FP-cvM-140" edge="1">
          <mxGeometry relative="1" as="geometry">
            <mxPoint x="1650" y="720" as="targetPoint" />
            <Array as="points">
              <mxPoint x="1480" y="720" />
            </Array>
          </mxGeometry>
        </mxCell>
        <mxCell id="NQojH1lwc0ZNS_FP-cvM-140" value="&amp;nbsp;quickSort(arr, pi + 1, high, size);" style="rounded=0;whiteSpace=wrap;html=1;" parent="1" vertex="1">
          <mxGeometry x="1420" y="600.0000000000001" width="120" height="30" as="geometry" />
        </mxCell>
        <mxCell id="NQojH1lwc0ZNS_FP-cvM-145" value="" style="endArrow=classic;html=1;rounded=0;" parent="1" edge="1">
          <mxGeometry width="50" height="50" relative="1" as="geometry">
            <mxPoint x="1653" y="718" as="sourcePoint" />
            <mxPoint x="1653" y="760" as="targetPoint" />
          </mxGeometry>
        </mxCell>
        <mxCell id="NQojH1lwc0ZNS_FP-cvM-146" value="return;" style="ellipse;whiteSpace=wrap;html=1;" parent="1" vertex="1">
          <mxGeometry x="1590" y="760" width="120" height="40" as="geometry" />
        </mxCell>
        <mxCell id="NQojH1lwc0ZNS_FP-cvM-147" value="}" style="text;html=1;align=center;verticalAlign=middle;resizable=0;points=[];autosize=1;strokeColor=none;fillColor=none;" parent="1" vertex="1">
          <mxGeometry x="1480" y="640" width="30" height="30" as="geometry" />
        </mxCell>
        <mxCell id="NQojH1lwc0ZNS_FP-cvM-148" value="{" style="text;html=1;align=center;verticalAlign=middle;resizable=0;points=[];autosize=1;strokeColor=none;fillColor=none;" parent="1" vertex="1">
          <mxGeometry x="1455" y="148" width="30" height="30" as="geometry" />
        </mxCell>
        <mxCell id="NQojH1lwc0ZNS_FP-cvM-149" value="{" style="text;html=1;align=center;verticalAlign=middle;resizable=0;points=[];autosize=1;strokeColor=none;fillColor=none;" parent="1" vertex="1">
          <mxGeometry x="635" y="68" width="30" height="30" as="geometry" />
        </mxCell>
        <mxCell id="NQojH1lwc0ZNS_FP-cvM-150" value="}" style="text;html=1;align=center;verticalAlign=middle;resizable=0;points=[];autosize=1;strokeColor=none;fillColor=none;" parent="1" vertex="1">
          <mxGeometry x="1085" y="268" width="30" height="30" as="geometry" />
        </mxCell>
        <mxCell id="NQojH1lwc0ZNS_FP-cvM-151" value="{" style="text;html=1;align=center;verticalAlign=middle;resizable=0;points=[];autosize=1;strokeColor=none;fillColor=none;" parent="1" vertex="1">
          <mxGeometry x="1570" y="85" width="30" height="30" as="geometry" />
        </mxCell>
        <mxCell id="NQojH1lwc0ZNS_FP-cvM-152" value="}" style="text;html=1;align=center;verticalAlign=middle;resizable=0;points=[];autosize=1;strokeColor=none;fillColor=none;" parent="1" vertex="1">
          <mxGeometry x="1715" y="788" width="30" height="30" as="geometry" />
        </mxCell>
      </root>
    </mxGraphModel>
  </diagram>
</mxfile>
